<?xml version="1.0" standalone="no"?>
<!DOCTYPE svg PUBLIC "-//W3C//DTD SVG 20010904//EN"
 "http://www.w3.org/TR/2001/REC-SVG-20010904/DTD/svg10.dtd">
<svg version="1.0" xmlns="http://www.w3.org/2000/svg"
 width="700.000000pt" height="700.000000pt" viewBox="0 0 700.000000 700.000000"
 preserveAspectRatio="xMidYMid meet">

<g transform="translate(0.000000,700.000000) scale(0.100000,-0.100000)"
fill="#000000" stroke="none">
<path d="M2132 6655 c-55 -34 -82 -87 -82 -160 0 -84 35 -137 112 -170 51 -21
103 -19 153 5 123 60 139 233 29 317 -30 22 -49 28 -103 31 -57 3 -72 -1 -109
-23z"/>
<path d="M4328 6441 c-98 -32 -154 -151 -117 -248 13 -34 55 -80 91 -99 41
-21 133 -18 177 7 115 64 122 242 12 314 -42 28 -119 40 -163 26z"/>
<path d="M3058 6417 c-98 -28 -172 -104 -203 -211 -29 -97 -16 -157 58 -264
36 -53 77 -182 77 -243 0 -60 -29 -172 -60 -236 -69 -140 -229 -227 -415 -226
-158 1 -403 105 -534 229 l-78 73 38 -77 c75 -152 94 -291 64 -465 -30 -170
-83 -269 -197 -368 -219 -189 -482 -236 -708 -126 -71 35 -201 156 -257 239
-37 54 -74 77 -143 85 -62 7 -91 0 -131 -34 -68 -57 -88 -162 -47 -243 42 -82
52 -85 271 -86 174 0 198 -2 259 -23 74 -26 130 -67 154 -113 32 -62 -18 -156
-97 -179 -34 -11 -44 -9 -92 15 -30 14 -84 53 -120 86 -84 77 -133 100 -217
100 -157 0 -259 -101 -268 -265 -3 -73 -1 -85 25 -135 61 -119 190 -168 338
-126 33 9 101 19 151 23 76 5 103 2 160 -15 253 -77 302 -244 101 -341 -132
-64 -276 -63 -474 5 -128 43 -161 44 -208 3 -51 -45 -69 -83 -61 -136 13 -100
65 -140 166 -130 38 3 91 22 174 61 88 42 130 56 163 56 105 0 274 -58 378
-130 118 -81 246 -226 334 -378 49 -84 83 -219 101 -395 25 -251 -36 -469
-173 -613 -86 -91 -152 -129 -305 -176 -160 -49 -192 -76 -207 -179 -10 -64
10 -127 51 -166 60 -56 177 -64 243 -15 28 20 80 107 81 134 0 42 47 134 93
185 180 197 491 142 616 -108 40 -80 42 -146 7 -294 -6 -25 -3 -22 25 20 68
105 209 220 347 282 31 14 102 41 157 58 l100 33 -2 98 c-6 256 -69 479 -174
611 -19 23 -90 87 -158 143 -169 137 -270 265 -372 475 -157 323 -193 652
-109 980 162 628 587 1033 1211 1156 266 53 533 11 814 -125 293 -143 531
-385 694 -706 120 -236 146 -353 145 -655 0 -167 -4 -216 -22 -297 -45 -206
-131 -404 -244 -563 -72 -102 -226 -262 -311 -324 -74 -54 -186 -219 -217
-319 -28 -89 -49 -227 -52 -336 -3 -87 -3 -89 22 -96 170 -51 246 -78 305
-108 126 -63 221 -137 309 -242 30 -36 34 -39 23 -15 -57 117 -82 287 -67 447
22 225 72 361 164 446 61 55 114 75 210 76 116 2 204 -44 262 -136 35 -54 77
-78 142 -78 100 0 155 52 156 149 1 102 -47 152 -172 178 -114 24 -178 82
-213 194 -11 34 -19 90 -19 128 0 87 29 147 113 230 150 151 373 255 572 268
l90 6 -60 13 c-173 35 -400 205 -503 377 -60 99 -82 178 -82 297 0 120 16 195
60 287 81 166 290 282 480 267 160 -13 262 34 318 149 82 164 39 289 -127 372
-36 19 -65 25 -110 25 -98 0 -160 -40 -246 -155 -202 -273 -522 -313 -751 -94
-97 94 -144 213 -144 364 0 201 93 377 263 496 38 27 95 58 126 69 97 37 131
85 131 188 0 45 -5 67 -22 92 -41 59 -71 75 -156 78 -67 3 -81 1 -111 -20 -50
-33 -81 -98 -81 -168 0 -76 -32 -197 -72 -273 -43 -81 -155 -194 -238 -240
-186 -102 -485 -144 -670 -93 -198 53 -376 177 -479 332 -73 111 -80 253 -21
424 55 156 41 271 -43 358 -71 75 -197 108 -299 79z"/>
<path d="M1469 6167 c-47 -31 -79 -98 -79 -165 0 -96 53 -156 172 -193 88 -28
201 -101 264 -172 l46 -52 -30 55 c-50 91 -73 175 -81 301 -10 138 -31 189
-96 226 -56 32 -149 32 -196 0z"/>
<path d="M505 5851 c-90 -56 -121 -160 -75 -250 87 -172 350 -106 350 88 0 71
-50 146 -113 170 -45 17 -128 13 -162 -8z"/>
<path d="M3136 4494 c-3 -8 -6 -487 -6 -1063 0 -801 3 -1050 12 -1059 18 -18
481 -17 497 2 8 10 10 298 9 1072 l-3 1059 -251 3 c-223 2 -252 1 -258 -14z"/>
<path d="M6213 4155 c-79 -40 -123 -115 -123 -208 1 -181 200 -288 357 -191
98 60 133 195 79 302 -29 57 -48 75 -106 101 -64 29 -143 28 -207 -4z"/>
<path d="M6360 3284 c-105 -50 -230 -84 -333 -91 l-89 -6 70 -18 c103 -26 173
-63 246 -129 87 -79 111 -90 193 -90 88 0 139 27 171 90 19 38 22 54 17 100
-13 106 -61 158 -160 174 -33 5 -53 0 -115 -30z"/>
<path d="M545 2381 c-87 -40 -135 -116 -135 -213 0 -78 23 -131 78 -180 49
-44 108 -62 180 -55 230 24 288 338 81 441 -64 32 -144 35 -204 7z"/>
<path d="M3316 2215 c-141 -50 -204 -220 -131 -353 64 -118 214 -164 333 -103
139 72 176 263 73 382 -66 78 -179 108 -275 74z"/>
<path d="M2854 1336 c-29 -29 -34 -41 -34 -82 0 -148 102 -179 580 -179 429 0
528 18 573 105 32 62 7 153 -49 178 -33 16 -85 15 -229 -4 -162 -21 -458 -21
-594 0 -58 9 -129 16 -159 16 -48 0 -58 -4 -88 -34z"/>
<path d="M5854 1336 c-17 -8 -44 -31 -60 -52 -24 -31 -29 -47 -29 -95 0 -43 5
-65 21 -86 73 -98 214 -99 274 -1 28 46 27 129 -1 175 -39 63 -133 90 -205 59z"/>
<path d="M4724 1153 c9 -17 28 -71 42 -120 24 -77 27 -107 29 -238 2 -163 7
-186 62 -237 63 -60 172 -76 243 -37 93 52 124 219 58 312 -13 18 -49 42 -95
63 -127 58 -245 149 -327 254 l-27 35 15 -32z"/>
<path d="M2098 1075 c-49 -69 -112 -110 -203 -130 -84 -19 -175 -60 -222 -99
-52 -44 -77 -108 -76 -195 2 -120 48 -198 147 -248 133 -67 321 1 373 135 22
58 24 193 4 305 -15 81 -10 201 9 252 6 15 9 29 8 30 -2 2 -20 -21 -40 -50z"/>
<path d="M2913 900 c-42 -10 -63 -27 -80 -67 -31 -75 -5 -155 59 -186 89 -42
473 -60 822 -37 178 12 229 30 260 93 38 80 -6 177 -88 192 -21 4 -106 0 -191
-10 -121 -14 -198 -16 -367 -12 -117 3 -233 10 -258 15 -78 16 -124 20 -157
12z"/>
</g>
</svg>
